<svg width="300" height="300" fill="none" xmlns="http://www.w3.org/2000/svg"><g clip-path="url(#clip0_299_2)"><mask id="a" style="mask-type:alpha" maskUnits="userSpaceOnUse" x="0" y="0" width="300" height="300"><path d="M150 300c82.843 0 150-67.157 150-150S232.843 0 150 0 0 67.157 0 150s67.157 150 150 150z" fill="#D9D9D9"/></mask><g mask="url(#a)" fill="#000"><path d="M104.51 67.45a3.51 3.51 0 100-7.02 3.51 3.51 0 000 7.02zm0 226a3.51 3.51 0 10.001-7.019 3.51 3.51 0 00-.001 7.019zm121-226a3.51 3.51 0 100-7.02 3.51 3.51 0 000 7.02zm0 226a3.51 3.51 0 10.001-7.019 3.51 3.51 0 00-.001 7.019zM13.7 67.45a3.51 3.51 0 100-7.02 3.51 3.51 0 000 7.02zm0 226a3.51 3.51 0 100-7.02 3.51 3.51 0 000 7.02zm121-226a3.51 3.51 0 100-7.02 3.51 3.51 0 000 7.02zm0 226a3.51 3.51 0 100-7.02 3.51 3.51 0 000 7.02zm121-226a3.51 3.51 0 100-7.02 3.51 3.51 0 000 7.02zm0 226a3.51 3.51 0 100-7.02 3.51 3.51 0 000 7.02zm-211.82-226a3.51 3.51 0 100-7.02 3.51 3.51 0 000 7.02zm0 226a3.51 3.51 0 100-7.02 3.51 3.51 0 000 7.02zm121-226a3.51 3.51 0 100-7.02 3.51 3.51 0 000 7.02zm0 226a3.51 3.51 0 10.001-7.019 3.51 3.51 0 00-.001 7.019zm121-226a3.51 3.51 0 100-7.02 3.51 3.51 0 000 7.02zm0 226a3.51 3.51 0 10.001-7.019 3.51 3.51 0 00-.001 7.019zm-211.81-226a3.51 3.51 0 100-7.02 3.51 3.51 0 000 7.02zm0 226a3.51 3.51 0 100-7.02 3.51 3.51 0 000 7.02zm121-226a3.51 3.51 0 100-7.02 3.51 3.51 0 000 7.02zm0 226a3.51 3.51 0 10.001-7.019 3.51 3.51 0 00-.001 7.019zM104.51 96.08a3.51 3.51 0 100-7.02 3.51 3.51 0 000 7.02zm121 0a3.51 3.51 0 100-7.02 3.51 3.51 0 000 7.02zm-211.81 0a3.51 3.51 0 100-7.02 3.51 3.51 0 000 7.02zm121 0a3.51 3.51 0 100-7.02 3.51 3.51 0 000 7.02zm121 0a3.51 3.51 0 100-7.02 3.51 3.51 0 000 7.02zm-211.82 0a3.51 3.51 0 100-7.02 3.51 3.51 0 000 7.02zm121 0a3.51 3.51 0 100-7.02 3.51 3.51 0 000 7.02zm121 0a3.51 3.51 0 100-7.02 3.51 3.51 0 000 7.02zm-211.81 0a3.51 3.51 0 100-7.02 3.51 3.51 0 000 7.02zm121 0a3.51 3.51 0 100-7.02 3.51 3.51 0 000 7.02zm-90.56 28.62a3.51 3.51 0 100-7.02 3.51 3.51 0 000 7.02zm121 0a3.51 3.51 0 100-7.02 3.51 3.51 0 000 7.02zm-211.81 0a3.51 3.51 0 100-7.02 3.51 3.51 0 000 7.02zm121 0a3.51 3.51 0 10-.001-7.021 3.51 3.51 0 00.001 7.021zm121 0a3.51 3.51 0 10-.001-7.021 3.51 3.51 0 00.001 7.021zm-211.82 0a3.51 3.51 0 100-7.02 3.51 3.51 0 000 7.02zm121 0a3.51 3.51 0 100-7.02 3.51 3.51 0 000 7.02zm121 0a3.51 3.51 0 100-7.02 3.51 3.51 0 000 7.02zm-211.81 0a3.51 3.51 0 100-7.02 3.51 3.51 0 000 7.02zm121 0a3.51 3.51 0 100-7.02 3.51 3.51 0 000 7.02zm-90.56 28.63a3.51 3.51 0 10.001-7.019 3.51 3.51 0 00-.001 7.019zm121 0a3.51 3.51 0 10.001-7.019 3.51 3.51 0 00-.001 7.019zm-211.81 0a3.51 3.51 0 100-7.02 3.51 3.51 0 000 7.02zm121 0a3.51 3.51 0 100-7.02 3.51 3.51 0 000 7.02zm121 0a3.51 3.51 0 100-7.02 3.51 3.51 0 000 7.02zm-211.82 0a3.51 3.51 0 100-7.02 3.51 3.51 0 000 7.02zm121 0a3.51 3.51 0 10.001-7.019 3.51 3.51 0 00-.001 7.019zm121 0a3.51 3.51 0 10.001-7.019 3.51 3.51 0 00-.001 7.019zm-211.81 0a3.51 3.51 0 100-7.02 3.51 3.51 0 000 7.02zm121 0a3.51 3.51 0 10.001-7.019 3.51 3.51 0 00-.001 7.019zm-90.56 28.69a3.51 3.51 0 10.001-7.019 3.51 3.51 0 00-.001 7.019zm121 0a3.51 3.51 0 10.001-7.019 3.51 3.51 0 00-.001 7.019zm-211.81 0a3.51 3.51 0 100-7.02 3.51 3.51 0 000 7.02zm121 0a3.51 3.51 0 100-7.02 3.51 3.51 0 000 7.02zm121 0a3.51 3.51 0 100-7.02 3.51 3.51 0 000 7.02zm-211.82 0a3.51 3.51 0 100-7.02 3.51 3.51 0 000 7.02zm121 0a3.51 3.51 0 10.001-7.019 3.51 3.51 0 00-.001 7.019zm121 0a3.51 3.51 0 10.001-7.019 3.51 3.51 0 00-.001 7.019zm-211.81 0a3.51 3.51 0 100-7.02 3.51 3.51 0 000 7.02zm121 0a3.51 3.51 0 10.001-7.019 3.51 3.51 0 00-.001 7.019zm-90.56 28.63a3.51 3.51 0 10.001-7.019 3.51 3.51 0 00-.001 7.019zm121 0a3.51 3.51 0 10.001-7.019 3.51 3.51 0 00-.001 7.019zm-211.81 0a3.51 3.51 0 100-7.02 3.51 3.51 0 000 7.02zm121 0a3.51 3.51 0 100-7.02 3.51 3.51 0 000 7.02zm121 0a3.51 3.51 0 100-7.02 3.51 3.51 0 000 7.02zm-211.82 0a3.51 3.51 0 100-7.02 3.51 3.51 0 000 7.02zm121 0a3.51 3.51 0 10.001-7.019 3.51 3.51 0 00-.001 7.019zm121 0a3.51 3.51 0 10.001-7.019 3.51 3.51 0 00-.001 7.019zm-211.81 0a3.51 3.51 0 100-7.02 3.51 3.51 0 000 7.02zm121 0a3.51 3.51 0 10.001-7.019 3.51 3.51 0 00-.001 7.019zM104.51 13.28a3.51 3.51 0 100-7.02 3.51 3.51 0 000 7.02zm0 226a3.51 3.51 0 10.001-7.019 3.51 3.51 0 00-.001 7.019zm121-226a3.51 3.51 0 100-7.02 3.51 3.51 0 000 7.02zm0 226a3.51 3.51 0 10.001-7.019 3.51 3.51 0 00-.001 7.019zM13.7 13.28a3.51 3.51 0 100-7.02 3.51 3.51 0 000 7.02zm0 226a3.51 3.51 0 100-7.02 3.51 3.51 0 000 7.02zm121-226a3.51 3.51 0 100-7.02 3.51 3.51 0 000 7.02zm0 226a3.51 3.51 0 100-7.02 3.51 3.51 0 000 7.02zm121-226a3.51 3.51 0 100-7.02 3.51 3.51 0 000 7.02zm0 226a3.51 3.51 0 100-7.02 3.51 3.51 0 000 7.02zm-211.82-226a3.51 3.51 0 100-7.02 3.51 3.51 0 000 7.02zm0 226a3.51 3.51 0 100-7.02 3.51 3.51 0 000 7.02zm121-226a3.51 3.51 0 100-7.02 3.51 3.51 0 000 7.02zm0 226a3.51 3.51 0 10.001-7.019 3.51 3.51 0 00-.001 7.019zm121-226a3.51 3.51 0 100-7.02 3.51 3.51 0 000 7.02zm0 226a3.51 3.51 0 10.001-7.019 3.51 3.51 0 00-.001 7.019zm-211.81-226a3.51 3.51 0 100-7.02 3.51 3.51 0 000 7.02zm0 226a3.51 3.51 0 100-7.02 3.51 3.51 0 000 7.02zm121-226a3.51 3.51 0 100-7.02 3.51 3.51 0 000 7.02zm0 226a3.51 3.51 0 10.001-7.019 3.51 3.51 0 00-.001 7.019zM104.51 41.9a3.51 3.51 0 100-7.02 3.51 3.51 0 000 7.02zm0 226a3.51 3.51 0 10.001-7.019 3.51 3.51 0 00-.001 7.019zm121-226a3.51 3.51 0 100-7.02 3.51 3.51 0 000 7.02zm0 226a3.51 3.51 0 10.001-7.019 3.51 3.51 0 00-.001 7.019zM13.7 41.9a3.51 3.51 0 100-7.02 3.51 3.51 0 000 7.02zm0 226a3.51 3.51 0 100-7.02 3.51 3.51 0 000 7.02zm121-226a3.51 3.51 0 100-7.02 3.51 3.51 0 000 7.02zm0 226a3.51 3.51 0 100-7.02 3.51 3.51 0 000 7.02zm121-226a3.51 3.51 0 100-7.02 3.51 3.51 0 000 7.02zm0 226a3.51 3.51 0 100-7.02 3.51 3.51 0 000 7.02zM43.88 41.9a3.51 3.51 0 100-7.02 3.51 3.51 0 000 7.02zm0 226a3.51 3.51 0 100-7.02 3.51 3.51 0 000 7.02zm121-226a3.51 3.51 0 100-7.02 3.51 3.51 0 000 7.02zm0 226a3.51 3.51 0 10.001-7.019 3.51 3.51 0 00-.001 7.019zm121-226a3.51 3.51 0 100-7.02 3.51 3.51 0 000 7.02zm0 226a3.51 3.51 0 10.001-7.019 3.51 3.51 0 00-.001 7.019zM74.07 41.9a3.51 3.51 0 100-7.02 3.51 3.51 0 000 7.02zm0 226a3.51 3.51 0 100-7.02 3.51 3.51 0 000 7.02zm121-226a3.51 3.51 0 100-7.02 3.51 3.51 0 000 7.02zm0 226a3.51 3.51 0 10.001-7.019 3.51 3.51 0 00-.001 7.019z"/></g></g><defs><clipPath id="clip0_299_2"><path fill="#fff" d="M0 0h300v300H0z"/></clipPath></defs></svg>